solid OpenSCAD_Model
  facet normal 0.994522 0.104529 0
    outer loop
      vertex 8 0 30
      vertex 7.82518 1.66329 11
      vertex 7.82518 1.66329 30
    endloop
  endfacet
  facet normal 0.994522 0.104529 0
    outer loop
      vertex 7.82518 1.66329 11
      vertex 8 0 30
      vertex 8 0 11
    endloop
  endfacet
  facet normal -0.994522 0.104529 0
    outer loop
      vertex -8 0 11
      vertex -7.82518 1.66329 30
      vertex -7.82518 1.66329 11
    endloop
  endfacet
  facet normal -0.994522 0.104529 0
    outer loop
      vertex -7.82518 1.66329 30
      vertex -8 0 11
      vertex -8 0 30
    endloop
  endfacet
  facet normal 0 1 -0
    outer loop
      vertex 0.836227 7.95617 11
      vertex -0.836227 7.95617 30
      vertex 0.836227 7.95617 30
    endloop
  endfacet
  facet normal 0 1 0
    outer loop
      vertex -0.836227 7.95617 30
      vertex 0.836227 7.95617 11
      vertex -0.836227 7.95617 11
    endloop
  endfacet
  facet normal 0.587785 0.809017 -0
    outer loop
      vertex 5.35304 5.94516 11
      vertex 4 6.9282 30
      vertex 5.35304 5.94516 30
    endloop
  endfacet
  facet normal 0.587785 0.809017 0
    outer loop
      vertex 4 6.9282 30
      vertex 5.35304 5.94516 11
      vertex 4 6.9282 11
    endloop
  endfacet
  facet normal 0.406737 0.913545 -0
    outer loop
      vertex 4 6.9282 11
      vertex 2.47214 7.60845 30
      vertex 4 6.9282 30
    endloop
  endfacet
  facet normal 0.406737 0.913545 0
    outer loop
      vertex 2.47214 7.60845 30
      vertex 4 6.9282 11
      vertex 2.47214 7.60845 11
    endloop
  endfacet
  facet normal -0.743145 0.669131 0
    outer loop
      vertex -6.47214 4.70228 11
      vertex -5.35304 5.94516 30
      vertex -5.35304 5.94516 11
    endloop
  endfacet
  facet normal -0.743145 0.669131 0
    outer loop
      vertex -5.35304 5.94516 30
      vertex -6.47214 4.70228 11
      vertex -6.47214 4.70228 30
    endloop
  endfacet
  facet normal -0.866026 0.5 0
    outer loop
      vertex -7.30836 3.25389 11
      vertex -6.47214 4.70228 30
      vertex -6.47214 4.70228 11
    endloop
  endfacet
  facet normal -0.866026 0.5 0
    outer loop
      vertex -6.47214 4.70228 30
      vertex -7.30836 3.25389 11
      vertex -7.30836 3.25389 30
    endloop
  endfacet
  facet normal -0.406737 0.913545 0
    outer loop
      vertex -2.47214 7.60845 11
      vertex -4 6.9282 30
      vertex -2.47214 7.60845 30
    endloop
  endfacet
  facet normal -0.406737 0.913545 0
    outer loop
      vertex -4 6.9282 30
      vertex -2.47214 7.60845 11
      vertex -4 6.9282 11
    endloop
  endfacet
  facet normal 0.866026 0.5 0
    outer loop
      vertex 7.30836 3.25389 30
      vertex 6.47214 4.70228 11
      vertex 6.47214 4.70228 30
    endloop
  endfacet
  facet normal 0.866026 0.5 0
    outer loop
      vertex 6.47214 4.70228 11
      vertex 7.30836 3.25389 30
      vertex 7.30836 3.25389 11
    endloop
  endfacet
  facet normal 0.951057 0.309017 0
    outer loop
      vertex 7.82518 1.66329 30
      vertex 7.30836 3.25389 11
      vertex 7.30836 3.25389 30
    endloop
  endfacet
  facet normal 0.951057 0.309017 0
    outer loop
      vertex 7.30836 3.25389 11
      vertex 7.82518 1.66329 30
      vertex 7.82518 1.66329 11
    endloop
  endfacet
  facet normal 0.743145 0.669131 0
    outer loop
      vertex 6.47214 4.70228 30
      vertex 5.35304 5.94516 11
      vertex 5.35304 5.94516 30
    endloop
  endfacet
  facet normal 0.743145 0.669131 0
    outer loop
      vertex 5.35304 5.94516 11
      vertex 6.47214 4.70228 30
      vertex 6.47214 4.70228 11
    endloop
  endfacet
  facet normal 0.207912 0.978148 -0
    outer loop
      vertex 2.47214 7.60845 11
      vertex 0.836227 7.95617 30
      vertex 2.47214 7.60845 30
    endloop
  endfacet
  facet normal 0.207912 0.978148 0
    outer loop
      vertex 0.836227 7.95617 30
      vertex 2.47214 7.60845 11
      vertex 0.836227 7.95617 11
    endloop
  endfacet
  facet normal -0.951057 0.309017 0
    outer loop
      vertex -7.82518 1.66329 11
      vertex -7.30836 3.25389 30
      vertex -7.30836 3.25389 11
    endloop
  endfacet
  facet normal -0.951057 0.309017 0
    outer loop
      vertex -7.30836 3.25389 30
      vertex -7.82518 1.66329 11
      vertex -7.82518 1.66329 30
    endloop
  endfacet
  facet normal 0 0 1
    outer loop
      vertex 4.5 4.5 30
      vertex 8 0 30
      vertex 7.82518 1.66329 30
    endloop
  endfacet
  facet normal 0 0 1
    outer loop
      vertex 4.5 4.5 30
      vertex 7.82518 1.66329 30
      vertex 7.30836 3.25389 30
    endloop
  endfacet
  facet normal 0 0 1
    outer loop
      vertex 4.5 -4.5 30
      vertex 8 0 30
      vertex 4.5 4.5 30
    endloop
  endfacet
  facet normal -0 0 1
    outer loop
      vertex 4.5 4.5 30
      vertex 7.30836 3.25389 30
      vertex 6.47214 4.70228 30
    endloop
  endfacet
  facet normal 0 0 1
    outer loop
      vertex 8 0 30
      vertex 4.5 -4.5 30
      vertex 7.82518 -1.66329 30
    endloop
  endfacet
  facet normal 0 0 1
    outer loop
      vertex 4.5 4.5 30
      vertex 6.47214 4.70228 30
      vertex 5.35304 5.94516 30
    endloop
  endfacet
  facet normal 0 0 1
    outer loop
      vertex 7.82518 -1.66329 30
      vertex 4.5 -4.5 30
      vertex 7.30836 -3.25389 30
    endloop
  endfacet
  facet normal 0 0 1
    outer loop
      vertex 7.30836 -3.25389 30
      vertex 4.5 -4.5 30
      vertex 6.47214 -4.70228 30
    endloop
  endfacet
  facet normal 0 0 1
    outer loop
      vertex 4 6.9282 30
      vertex 4.5 4.5 30
      vertex 5.35304 5.94516 30
    endloop
  endfacet
  facet normal 0 0 1
    outer loop
      vertex 2.47214 7.60845 30
      vertex 4.5 4.5 30
      vertex 4 6.9282 30
    endloop
  endfacet
  facet normal 0 0 1
    outer loop
      vertex 0.836227 7.95617 30
      vertex 4.5 4.5 30
      vertex 2.47214 7.60845 30
    endloop
  endfacet
  facet normal -0 0 1
    outer loop
      vertex -0.836227 7.95617 30
      vertex 4.5 4.5 30
      vertex 0.836227 7.95617 30
    endloop
  endfacet
  facet normal 0 0 1
    outer loop
      vertex -4.5 4.5 30
      vertex -0.836227 7.95617 30
      vertex -2.47214 7.60845 30
    endloop
  endfacet
  facet normal 0 0 1
    outer loop
      vertex -4.5 4.5 30
      vertex -2.47214 7.60845 30
      vertex -4 6.9282 30
    endloop
  endfacet
  facet normal 0 0 1
    outer loop
      vertex -0.836227 7.95617 30
      vertex -4.5 4.5 30
      vertex 4.5 4.5 30
    endloop
  endfacet
  facet normal -0 0 1
    outer loop
      vertex -6.47214 4.70228 30
      vertex -4.5 4.5 30
      vertex -5.35304 5.94516 30
    endloop
  endfacet
  facet normal -0 0 1
    outer loop
      vertex -5.35304 5.94516 30
      vertex -4.5 4.5 30
      vertex -4 6.9282 30
    endloop
  endfacet
  facet normal 0 0 1
    outer loop
      vertex 6.47214 -4.70228 30
      vertex 4.5 -4.5 30
      vertex 5.35304 -5.94516 30
    endloop
  endfacet
  facet normal 0 0 1
    outer loop
      vertex 4.5 -4.5 30
      vertex 4 -6.9282 30
      vertex 5.35304 -5.94516 30
    endloop
  endfacet
  facet normal 0 0 1
    outer loop
      vertex 4.5 -4.5 30
      vertex 2.47214 -7.60845 30
      vertex 4 -6.9282 30
    endloop
  endfacet
  facet normal 0 0 1
    outer loop
      vertex 4.5 -4.5 30
      vertex 0.836227 -7.95617 30
      vertex 2.47214 -7.60845 30
    endloop
  endfacet
  facet normal 0 0 1
    outer loop
      vertex 4.5 -4.5 30
      vertex -0.836227 -7.95617 30
      vertex 0.836227 -7.95617 30
    endloop
  endfacet
  facet normal -0 0 1
    outer loop
      vertex -4.5 -4.5 30
      vertex -0.836227 -7.95617 30
      vertex 4.5 -4.5 30
    endloop
  endfacet
  facet normal 0 0 1
    outer loop
      vertex -0.836227 -7.95617 30
      vertex -4.5 -4.5 30
      vertex -2.47214 -7.60845 30
    endloop
  endfacet
  facet normal 0 0 1
    outer loop
      vertex -2.47214 -7.60845 30
      vertex -4.5 -4.5 30
      vertex -4 -6.9282 30
    endloop
  endfacet
  facet normal 0 0 1
    outer loop
      vertex -4.5 -4.5 30
      vertex -5.35304 -5.94516 30
      vertex -4 -6.9282 30
    endloop
  endfacet
  facet normal 0 0 1
    outer loop
      vertex -7.30836 3.25389 30
      vertex -4.5 4.5 30
      vertex -6.47214 4.70228 30
    endloop
  endfacet
  facet normal 0 0 1
    outer loop
      vertex -7.82518 1.66329 30
      vertex -4.5 4.5 30
      vertex -7.30836 3.25389 30
    endloop
  endfacet
  facet normal 0 0 1
    outer loop
      vertex -4.5 -4.5 30
      vertex -6.47214 -4.70228 30
      vertex -5.35304 -5.94516 30
    endloop
  endfacet
  facet normal 0 0 1
    outer loop
      vertex -8 0 30
      vertex -4.5 4.5 30
      vertex -7.82518 1.66329 30
    endloop
  endfacet
  facet normal 0 0 1
    outer loop
      vertex -4.5 -4.5 30
      vertex -7.30836 -3.25389 30
      vertex -6.47214 -4.70228 30
    endloop
  endfacet
  facet normal 0 0 1
    outer loop
      vertex -4.5 4.5 30
      vertex -8 0 30
      vertex -4.5 -4.5 30
    endloop
  endfacet
  facet normal 0 0 1
    outer loop
      vertex -4.5 -4.5 30
      vertex -7.82518 -1.66329 30
      vertex -7.30836 -3.25389 30
    endloop
  endfacet
  facet normal 0 0 1
    outer loop
      vertex -4.5 -4.5 30
      vertex -8 0 30
      vertex -7.82518 -1.66329 30
    endloop
  endfacet
  facet normal -0.587785 0.809017 0
    outer loop
      vertex -4 6.9282 11
      vertex -5.35304 5.94516 30
      vertex -4 6.9282 30
    endloop
  endfacet
  facet normal -0.587785 0.809017 0
    outer loop
      vertex -5.35304 5.94516 30
      vertex -4 6.9282 11
      vertex -5.35304 5.94516 11
    endloop
  endfacet
  facet normal -0.207912 0.978148 0
    outer loop
      vertex -0.836227 7.95617 11
      vertex -2.47214 7.60845 30
      vertex -0.836227 7.95617 30
    endloop
  endfacet
  facet normal -0.207912 0.978148 0
    outer loop
      vertex -2.47214 7.60845 30
      vertex -0.836227 7.95617 11
      vertex -2.47214 7.60845 11
    endloop
  endfacet
  facet normal 0.994522 -0.104529 0
    outer loop
      vertex 7.82518 -1.66329 30
      vertex 8 0 11
      vertex 8 0 30
    endloop
  endfacet
  facet normal 0.994522 -0.104529 0
    outer loop
      vertex 8 0 11
      vertex 7.82518 -1.66329 30
      vertex 7.82518 -1.66329 11
    endloop
  endfacet
  facet normal -0.207912 -0.978148 0
    outer loop
      vertex -2.47214 -7.60845 11
      vertex -0.836227 -7.95617 30
      vertex -2.47214 -7.60845 30
    endloop
  endfacet
  facet normal -0.207912 -0.978148 -0
    outer loop
      vertex -0.836227 -7.95617 30
      vertex -2.47214 -7.60845 11
      vertex -0.836227 -7.95617 11
    endloop
  endfacet
  facet normal 0.207912 -0.978148 0
    outer loop
      vertex 0.836227 -7.95617 11
      vertex 2.47214 -7.60845 30
      vertex 0.836227 -7.95617 30
    endloop
  endfacet
  facet normal 0.207912 -0.978148 0
    outer loop
      vertex 2.47214 -7.60845 30
      vertex 0.836227 -7.95617 11
      vertex 2.47214 -7.60845 11
    endloop
  endfacet
  facet normal 0.743145 -0.669131 0
    outer loop
      vertex 5.35304 -5.94516 30
      vertex 6.47214 -4.70228 11
      vertex 6.47214 -4.70228 30
    endloop
  endfacet
  facet normal 0.743145 -0.669131 0
    outer loop
      vertex 6.47214 -4.70228 11
      vertex 5.35304 -5.94516 30
      vertex 5.35304 -5.94516 11
    endloop
  endfacet
  facet normal 0.951057 -0.309017 0
    outer loop
      vertex 7.30836 -3.25389 30
      vertex 7.82518 -1.66329 11
      vertex 7.82518 -1.66329 30
    endloop
  endfacet
  facet normal 0.951057 -0.309017 0
    outer loop
      vertex 7.82518 -1.66329 11
      vertex 7.30836 -3.25389 30
      vertex 7.30836 -3.25389 11
    endloop
  endfacet
  facet normal 0.866026 -0.5 0
    outer loop
      vertex 6.47214 -4.70228 30
      vertex 7.30836 -3.25389 11
      vertex 7.30836 -3.25389 30
    endloop
  endfacet
  facet normal 0.866026 -0.5 0
    outer loop
      vertex 7.30836 -3.25389 11
      vertex 6.47214 -4.70228 30
      vertex 6.47214 -4.70228 11
    endloop
  endfacet
  facet normal -0.866026 -0.5 0
    outer loop
      vertex -6.47214 -4.70228 11
      vertex -7.30836 -3.25389 30
      vertex -7.30836 -3.25389 11
    endloop
  endfacet
  facet normal -0.866026 -0.5 0
    outer loop
      vertex -7.30836 -3.25389 30
      vertex -6.47214 -4.70228 11
      vertex -6.47214 -4.70228 30
    endloop
  endfacet
  facet normal -0.994522 -0.104529 0
    outer loop
      vertex -7.82518 -1.66329 11
      vertex -8 0 30
      vertex -8 0 11
    endloop
  endfacet
  facet normal -0.994522 -0.104529 0
    outer loop
      vertex -8 0 30
      vertex -7.82518 -1.66329 11
      vertex -7.82518 -1.66329 30
    endloop
  endfacet
  facet normal -0.951057 -0.309017 0
    outer loop
      vertex -7.30836 -3.25389 11
      vertex -7.82518 -1.66329 30
      vertex -7.82518 -1.66329 11
    endloop
  endfacet
  facet normal -0.951057 -0.309017 0
    outer loop
      vertex -7.82518 -1.66329 30
      vertex -7.30836 -3.25389 11
      vertex -7.30836 -3.25389 30
    endloop
  endfacet
  facet normal 0.587785 -0.809017 0
    outer loop
      vertex 4 -6.9282 11
      vertex 5.35304 -5.94516 30
      vertex 4 -6.9282 30
    endloop
  endfacet
  facet normal 0.587785 -0.809017 0
    outer loop
      vertex 5.35304 -5.94516 30
      vertex 4 -6.9282 11
      vertex 5.35304 -5.94516 11
    endloop
  endfacet
  facet normal 0.406737 -0.913545 0
    outer loop
      vertex 2.47214 -7.60845 11
      vertex 4 -6.9282 30
      vertex 2.47214 -7.60845 30
    endloop
  endfacet
  facet normal 0.406737 -0.913545 0
    outer loop
      vertex 4 -6.9282 30
      vertex 2.47214 -7.60845 11
      vertex 4 -6.9282 11
    endloop
  endfacet
  facet normal 0 -1 0
    outer loop
      vertex -0.836227 -7.95617 11
      vertex 0.836227 -7.95617 30
      vertex -0.836227 -7.95617 30
    endloop
  endfacet
  facet normal 0 -1 -0
    outer loop
      vertex 0.836227 -7.95617 30
      vertex -0.836227 -7.95617 11
      vertex 0.836227 -7.95617 11
    endloop
  endfacet
  facet normal -0.406737 -0.913545 0
    outer loop
      vertex -4 -6.9282 11
      vertex -2.47214 -7.60845 30
      vertex -4 -6.9282 30
    endloop
  endfacet
  facet normal -0.406737 -0.913545 -0
    outer loop
      vertex -2.47214 -7.60845 30
      vertex -4 -6.9282 11
      vertex -2.47214 -7.60845 11
    endloop
  endfacet
  facet normal -0.743145 -0.669131 0
    outer loop
      vertex -5.35304 -5.94516 11
      vertex -6.47214 -4.70228 30
      vertex -6.47214 -4.70228 11
    endloop
  endfacet
  facet normal -0.743145 -0.669131 0
    outer loop
      vertex -6.47214 -4.70228 30
      vertex -5.35304 -5.94516 11
      vertex -5.35304 -5.94516 30
    endloop
  endfacet
  facet normal -0.587785 -0.809017 0
    outer loop
      vertex -5.35304 -5.94516 11
      vertex -4 -6.9282 30
      vertex -5.35304 -5.94516 30
    endloop
  endfacet
  facet normal -0.587785 -0.809017 -0
    outer loop
      vertex -4 -6.9282 30
      vertex -5.35304 -5.94516 11
      vertex -4 -6.9282 11
    endloop
  endfacet
  facet normal 1 -0 0
    outer loop
      vertex -4.5 -4.5 30
      vertex -4.5 4.5 22
      vertex -4.5 4.5 30
    endloop
  endfacet
  facet normal 1 0 0
    outer loop
      vertex -4.5 4.5 22
      vertex -4.5 -4.5 30
      vertex -4.5 -4.5 22
    endloop
  endfacet
  facet normal -1 0 0
    outer loop
      vertex 4.5 -4.5 22
      vertex 4.5 4.5 30
      vertex 4.5 4.5 22
    endloop
  endfacet
  facet normal -1 -0 0
    outer loop
      vertex 4.5 4.5 30
      vertex 4.5 -4.5 22
      vertex 4.5 -4.5 30
    endloop
  endfacet
  facet normal 0 -1 0
    outer loop
      vertex -4.5 4.5 22
      vertex 4.5 4.5 30
      vertex -4.5 4.5 30
    endloop
  endfacet
  facet normal 0 -1 -0
    outer loop
      vertex 4.5 4.5 30
      vertex -4.5 4.5 22
      vertex 4.5 4.5 22
    endloop
  endfacet
  facet normal -0 0 1
    outer loop
      vertex -4.5 4.5 22
      vertex 4.5 -4.5 22
      vertex 4.5 4.5 22
    endloop
  endfacet
  facet normal 0 0 1
    outer loop
      vertex 4.5 -4.5 22
      vertex -4.5 4.5 22
      vertex -4.5 -4.5 22
    endloop
  endfacet
  facet normal 0 1 -0
    outer loop
      vertex 4.5 -4.5 22
      vertex -4.5 -4.5 30
      vertex 4.5 -4.5 30
    endloop
  endfacet
  facet normal 0 1 0
    outer loop
      vertex -4.5 -4.5 30
      vertex 4.5 -4.5 22
      vertex -4.5 -4.5 22
    endloop
  endfacet
  facet normal 0.207911 0.978148 -0
    outer loop
      vertex 57.4721 11.6085 0
      vertex 55.8362 11.9562 11
      vertex 57.4721 11.6085 11
    endloop
  endfacet
  facet normal 0.207911 0.978148 0
    outer loop
      vertex 55.8362 11.9562 11
      vertex 57.4721 11.6085 0
      vertex 55.8362 11.9562 0
    endloop
  endfacet
  facet normal -0.866026 0.5 0
    outer loop
      vertex -12.3084 7.25389 0
      vertex -11.4721 8.70228 11
      vertex -11.4721 8.70228 0
    endloop
  endfacet
  facet normal -0.866026 0.5 0
    outer loop
      vertex -11.4721 8.70228 11
      vertex -12.3084 7.25389 0
      vertex -12.3084 7.25389 11
    endloop
  endfacet
  facet normal -1 0 0
    outer loop
      vertex -13 -4 0
      vertex -13 4 11
      vertex -13 4 0
    endloop
  endfacet
  facet normal -1 -0 0
    outer loop
      vertex -13 4 11
      vertex -13 -4 0
      vertex -13 -4 11
    endloop
  endfacet
  facet normal 0 0 -1
    outer loop
      vertex 57.0074 -2.22943 0
      vertex 63 -4 0
      vertex 62.8252 -5.66329 0
    endloop
  endfacet
  facet normal 0 0 -1
    outer loop
      vertex 63 -4 0
      vertex 58 0 0
      vertex 63 4 0
    endloop
  endfacet
  facet normal 0 0 -1
    outer loop
      vertex 57.0074 -2.22943 0
      vertex 62.8252 -5.66329 0
      vertex 62.3084 -7.25389 0
    endloop
  endfacet
  facet normal 0 0 -1
    outer loop
      vertex 57.9344 0.623734 0
      vertex 63 4 0
      vertex 58 0 0
    endloop
  endfacet
  facet normal 0 0 -1
    outer loop
      vertex 56.5 -2.59808 0
      vertex 62.3084 -7.25389 0
      vertex 61.4721 -8.70228 0
    endloop
  endfacet
  facet normal 0 0 -1
    outer loop
      vertex 57.7406 1.22021 0
      vertex 63 4 0
      vertex 57.9344 0.623734 0
    endloop
  endfacet
  facet normal 0 0 -1
    outer loop
      vertex 55.9271 -2.85317 0
      vertex 61.4721 -8.70228 0
      vertex 60.353 -9.94516 0
    endloop
  endfacet
  facet normal 0 0 -1
    outer loop
      vertex 57.4271 1.76336 0
      vertex 63 4 0
      vertex 57.7406 1.22021 0
    endloop
  endfacet
  facet normal 0 0 -1
    outer loop
      vertex 55.9271 -2.85317 0
      vertex 60.353 -9.94516 0
      vertex 59 -10.9282 0
    endloop
  endfacet
  facet normal 0 0 -1
    outer loop
      vertex 57.0074 2.22943 0
      vertex 63 4 0
      vertex 57.4271 1.76336 0
    endloop
  endfacet
  facet normal -0 0 -1
    outer loop
      vertex 63 4 0
      vertex 57.0074 2.22943 0
      vertex 62.8252 5.66329 0
    endloop
  endfacet
  facet normal 0 0 -1
    outer loop
      vertex 63 -4 0
      vertex 57.9344 -0.623734 0
      vertex 58 0 0
    endloop
  endfacet
  facet normal 0 0 -1
    outer loop
      vertex 63 -4 0
      vertex 57.7406 -1.22021 0
      vertex 57.9344 -0.623734 0
    endloop
  endfacet
  facet normal 0 0 -1
    outer loop
      vertex 55.3136 -2.98357 0
      vertex 59 -10.9282 0
      vertex 57.4721 -11.6085 0
    endloop
  endfacet
  facet normal 0 0 -1
    outer loop
      vertex 63 -4 0
      vertex 57.4271 -1.76336 0
      vertex 57.7406 -1.22021 0
    endloop
  endfacet
  facet normal 0 0 -1
    outer loop
      vertex 63 -4 0
      vertex 57.0074 -2.22943 0
      vertex 57.4271 -1.76336 0
    endloop
  endfacet
  facet normal 0 0 -1
    outer loop
      vertex 62.3084 -7.25389 0
      vertex 56.5 -2.59808 0
      vertex 57.0074 -2.22943 0
    endloop
  endfacet
  facet normal 0 0 -1
    outer loop
      vertex 61.4721 -8.70228 0
      vertex 55.9271 -2.85317 0
      vertex 56.5 -2.59808 0
    endloop
  endfacet
  facet normal 0 0 -1
    outer loop
      vertex 55.3136 -2.98357 0
      vertex 57.4721 -11.6085 0
      vertex 55.8362 -11.9562 0
    endloop
  endfacet
  facet normal 0 0 -1
    outer loop
      vertex 59 -10.9282 0
      vertex 55.3136 -2.98357 0
      vertex 55.9271 -2.85317 0
    endloop
  endfacet
  facet normal 0 0 -1
    outer loop
      vertex 55.8362 -11.9562 0
      vertex 54.6864 -2.98357 0
      vertex 55.3136 -2.98357 0
    endloop
  endfacet
  facet normal 0 0 -1
    outer loop
      vertex 55.8362 -11.9562 0
      vertex 54.0729 -2.85317 0
      vertex 54.6864 -2.98357 0
    endloop
  endfacet
  facet normal 0 0 -1
    outer loop
      vertex 55.8362 -11.9562 0
      vertex 53.5 -2.59808 0
      vertex 54.0729 -2.85317 0
    endloop
  endfacet
  facet normal 0 0 -1
    outer loop
      vertex 55.8362 -11.9562 0
      vertex 52.9926 -2.22943 0
      vertex 53.5 -2.59808 0
    endloop
  endfacet
  facet normal 0 0 -1
    outer loop
      vertex 55.8362 -11.9562 0
      vertex 52.5729 -1.76336 0
      vertex 52.9926 -2.22943 0
    endloop
  endfacet
  facet normal 0 0 -1
    outer loop
      vertex 55.8362 -11.9562 0
      vertex 52.2594 -1.22021 0
      vertex 52.5729 -1.76336 0
    endloop
  endfacet
  facet normal -0 0 -1
    outer loop
      vertex 52.0656 -0.623734 0
      vertex -5.83623 -11.9562 0
      vertex 52 0 0
    endloop
  endfacet
  facet normal -0 0 -1
    outer loop
      vertex 52.2594 -1.22021 0
      vertex -5.83623 -11.9562 0
      vertex 52.0656 -0.623734 0
    endloop
  endfacet
  facet normal 0 0 -1
    outer loop
      vertex -5.83623 -11.9562 0
      vertex 52.2594 -1.22021 0
      vertex 55.8362 -11.9562 0
    endloop
  endfacet
  facet normal -0 0 -1
    outer loop
      vertex 62.8252 5.66329 0
      vertex 57.0074 2.22943 0
      vertex 62.3084 7.25389 0
    endloop
  endfacet
  facet normal 0 0 -1
    outer loop
      vertex 56.5 2.59808 0
      vertex 62.3084 7.25389 0
      vertex 57.0074 2.22943 0
    endloop
  endfacet
  facet normal -0 0 -1
    outer loop
      vertex 62.3084 7.25389 0
      vertex 56.5 2.59808 0
      vertex 61.4721 8.70228 0
    endloop
  endfacet
  facet normal 0 0 -1
    outer loop
      vertex 55.9271 2.85317 0
      vertex 61.4721 8.70228 0
      vertex 56.5 2.59808 0
    endloop
  endfacet
  facet normal -0 0 -1
    outer loop
      vertex 61.4721 8.70228 0
      vertex 55.9271 2.85317 0
      vertex 60.353 9.94516 0
    endloop
  endfacet
  facet normal -0 0 -1
    outer loop
      vertex 60.353 9.94516 0
      vertex 55.9271 2.85317 0
      vertex 59 10.9282 0
    endloop
  endfacet
  facet normal 0 0 -1
    outer loop
      vertex 55.3136 2.98357 0
      vertex 59 10.9282 0
      vertex 55.9271 2.85317 0
    endloop
  endfacet
  facet normal -0 0 -1
    outer loop
      vertex 59 10.9282 0
      vertex 55.3136 2.98357 0
      vertex 57.4721 11.6085 0
    endloop
  endfacet
  facet normal -0 0 -1
    outer loop
      vertex 57.4721 11.6085 0
      vertex 55.3136 2.98357 0
      vertex 55.8362 11.9562 0
    endloop
  endfacet
  facet normal 0 0 -1
    outer loop
      vertex 54.6864 2.98357 0
      vertex 55.8362 11.9562 0
      vertex 55.3136 2.98357 0
    endloop
  endfacet
  facet normal 0 0 -1
    outer loop
      vertex 54.0729 2.85317 0
      vertex 55.8362 11.9562 0
      vertex 54.6864 2.98357 0
    endloop
  endfacet
  facet normal 0 0 -1
    outer loop
      vertex 53.5 2.59808 0
      vertex 55.8362 11.9562 0
      vertex 54.0729 2.85317 0
    endloop
  endfacet
  facet normal 0 0 -1
    outer loop
      vertex 52.9926 2.22943 0
      vertex 55.8362 11.9562 0
      vertex 53.5 2.59808 0
    endloop
  endfacet
  facet normal 0 0 -1
    outer loop
      vertex 52.5729 1.76336 0
      vertex 55.8362 11.9562 0
      vertex 52.9926 2.22943 0
    endloop
  endfacet
  facet normal 0 0 -1
    outer loop
      vertex 52.2594 1.22021 0
      vertex 55.8362 11.9562 0
      vertex 52.5729 1.76336 0
    endloop
  endfacet
  facet normal 0 0 -1
    outer loop
      vertex -5.83623 11.9562 0
      vertex 52 0 0
      vertex -5.83623 -11.9562 0
    endloop
  endfacet
  facet normal 0 0 -1
    outer loop
      vertex 52 0 0
      vertex -5.83623 11.9562 0
      vertex 52.0656 0.623734 0
    endloop
  endfacet
  facet normal 0 0 -1
    outer loop
      vertex 52.0656 0.623734 0
      vertex -5.83623 11.9562 0
      vertex 52.2594 1.22021 0
    endloop
  endfacet
  facet normal 0 0 -1
    outer loop
      vertex 52.2594 1.22021 0
      vertex -5.83623 11.9562 0
      vertex 55.8362 11.9562 0
    endloop
  endfacet
  facet normal 0 0 -1
    outer loop
      vertex -13 -4 0
      vertex -5.83623 -11.9562 0
      vertex -7.47214 -11.6085 0
    endloop
  endfacet
  facet normal 0 0 -1
    outer loop
      vertex -5.83623 -11.9562 0
      vertex -13 -4 0
      vertex -5.83623 11.9562 0
    endloop
  endfacet
  facet normal 0 0 -1
    outer loop
      vertex -5.83623 11.9562 0
      vertex -13 4 0
      vertex -7.47214 11.6085 0
    endloop
  endfacet
  facet normal 0 0 -1
    outer loop
      vertex -13 -4 0
      vertex -7.47214 -11.6085 0
      vertex -9 -10.9282 0
    endloop
  endfacet
  facet normal 0 0 -1
    outer loop
      vertex -13 -4 0
      vertex -9 -10.9282 0
      vertex -10.353 -9.94516 0
    endloop
  endfacet
  facet normal 0 0 -1
    outer loop
      vertex -5.83623 11.9562 0
      vertex -13 -4 0
      vertex -13 4 0
    endloop
  endfacet
  facet normal 0 0 -1
    outer loop
      vertex -13 -4 0
      vertex -10.353 -9.94516 0
      vertex -11.4721 -8.70228 0
    endloop
  endfacet
  facet normal 0 0 -1
    outer loop
      vertex -7.47214 11.6085 0
      vertex -13 4 0
      vertex -9 10.9282 0
    endloop
  endfacet
  facet normal 0 0 -1
    outer loop
      vertex -13 -4 0
      vertex -11.4721 -8.70228 0
      vertex -12.3084 -7.25389 0
    endloop
  endfacet
  facet normal 0 0 -1
    outer loop
      vertex -9 10.9282 0
      vertex -13 4 0
      vertex -10.353 9.94516 0
    endloop
  endfacet
  facet normal 0 0 -1
    outer loop
      vertex -13 -4 0
      vertex -12.3084 -7.25389 0
      vertex -12.8252 -5.66329 0
    endloop
  endfacet
  facet normal 0 0 -1
    outer loop
      vertex -10.353 9.94516 0
      vertex -13 4 0
      vertex -11.4721 8.70228 0
    endloop
  endfacet
  facet normal 0 0 -1
    outer loop
      vertex -11.4721 8.70228 0
      vertex -13 4 0
      vertex -12.3084 7.25389 0
    endloop
  endfacet
  facet normal 0 0 -1
    outer loop
      vertex -12.3084 7.25389 0
      vertex -13 4 0
      vertex -12.8252 5.66329 0
    endloop
  endfacet
  facet normal -0.406737 0.913545 0
    outer loop
      vertex -7.47214 11.6085 0
      vertex -9 10.9282 11
      vertex -7.47214 11.6085 11
    endloop
  endfacet
  facet normal -0.406737 0.913545 0
    outer loop
      vertex -9 10.9282 11
      vertex -7.47214 11.6085 0
      vertex -9 10.9282 0
    endloop
  endfacet
  facet normal 0 -1 0
    outer loop
      vertex -5.83623 -11.9562 0
      vertex 55.8362 -11.9562 11
      vertex -5.83623 -11.9562 11
    endloop
  endfacet
  facet normal 0 -1 -0
    outer loop
      vertex 55.8362 -11.9562 11
      vertex -5.83623 -11.9562 0
      vertex 55.8362 -11.9562 0
    endloop
  endfacet
  facet normal 0 1 -0
    outer loop
      vertex 55.8362 11.9562 0
      vertex -5.83623 11.9562 11
      vertex 55.8362 11.9562 11
    endloop
  endfacet
  facet normal 0 1 0
    outer loop
      vertex -5.83623 11.9562 11
      vertex 55.8362 11.9562 0
      vertex -5.83623 11.9562 0
    endloop
  endfacet
  facet normal -0.743145 0.669131 0
    outer loop
      vertex -11.4721 8.70228 0
      vertex -10.353 9.94516 11
      vertex -10.353 9.94516 0
    endloop
  endfacet
  facet normal -0.743145 0.669131 0
    outer loop
      vertex -10.353 9.94516 11
      vertex -11.4721 8.70228 0
      vertex -11.4721 8.70228 11
    endloop
  endfacet
  facet normal -0.951057 0.309017 0
    outer loop
      vertex -12.8252 5.66329 0
      vertex -12.3084 7.25389 11
      vertex -12.3084 7.25389 0
    endloop
  endfacet
  facet normal -0.951057 0.309017 0
    outer loop
      vertex -12.3084 7.25389 11
      vertex -12.8252 5.66329 0
      vertex -12.8252 5.66329 11
    endloop
  endfacet
  facet normal -0.994522 -0.104529 0
    outer loop
      vertex -12.8252 -5.66329 0
      vertex -13 -4 11
      vertex -13 -4 0
    endloop
  endfacet
  facet normal -0.994522 -0.104529 0
    outer loop
      vertex -13 -4 11
      vertex -12.8252 -5.66329 0
      vertex -12.8252 -5.66329 11
    endloop
  endfacet
  facet normal 0.207911 -0.978148 0
    outer loop
      vertex 55.8362 -11.9562 0
      vertex 57.4721 -11.6085 11
      vertex 55.8362 -11.9562 11
    endloop
  endfacet
  facet normal 0.207911 -0.978148 0
    outer loop
      vertex 57.4721 -11.6085 11
      vertex 55.8362 -11.9562 0
      vertex 57.4721 -11.6085 0
    endloop
  endfacet
  facet normal 0.951057 -0.309016 0
    outer loop
      vertex 62.3084 -7.25389 11
      vertex 62.8252 -5.66329 0
      vertex 62.8252 -5.66329 11
    endloop
  endfacet
  facet normal 0.951057 -0.309016 0
    outer loop
      vertex 62.8252 -5.66329 0
      vertex 62.3084 -7.25389 11
      vertex 62.3084 -7.25389 0
    endloop
  endfacet
  facet normal -0.587785 0.809017 0
    outer loop
      vertex -9 10.9282 0
      vertex -10.353 9.94516 11
      vertex -9 10.9282 11
    endloop
  endfacet
  facet normal -0.587785 0.809017 0
    outer loop
      vertex -10.353 9.94516 11
      vertex -9 10.9282 0
      vertex -10.353 9.94516 0
    endloop
  endfacet
  facet normal -0.994522 0.104529 0
    outer loop
      vertex -13 4 0
      vertex -12.8252 5.66329 11
      vertex -12.8252 5.66329 0
    endloop
  endfacet
  facet normal -0.994522 0.104529 0
    outer loop
      vertex -12.8252 5.66329 11
      vertex -13 4 0
      vertex -13 4 11
    endloop
  endfacet
  facet normal 0 0 1
    outer loop
      vertex 57.0074 2.22943 11
      vertex 63 4 11
      vertex 62.8252 5.66329 11
    endloop
  endfacet
  facet normal 0 0 1
    outer loop
      vertex 63 4 11
      vertex 58 0 11
      vertex 63 -4 11
    endloop
  endfacet
  facet normal 0 0 1
    outer loop
      vertex 57.0074 2.22943 11
      vertex 62.8252 5.66329 11
      vertex 62.3084 7.25389 11
    endloop
  endfacet
  facet normal -0 0 1
    outer loop
      vertex 57.9344 -0.623734 11
      vertex 63 -4 11
      vertex 58 0 11
    endloop
  endfacet
  facet normal 0 0 1
    outer loop
      vertex 56.5 2.59808 11
      vertex 62.3084 7.25389 11
      vertex 61.4721 8.70228 11
    endloop
  endfacet
  facet normal -0 0 1
    outer loop
      vertex 57.7406 -1.22021 11
      vertex 63 -4 11
      vertex 57.9344 -0.623734 11
    endloop
  endfacet
  facet normal 0 0 1
    outer loop
      vertex 55.9271 2.85317 11
      vertex 61.4721 8.70228 11
      vertex 60.353 9.94516 11
    endloop
  endfacet
  facet normal -0 0 1
    outer loop
      vertex 57.4271 -1.76336 11
      vertex 63 -4 11
      vertex 57.7406 -1.22021 11
    endloop
  endfacet
  facet normal 0 0 1
    outer loop
      vertex 55.9271 2.85317 11
      vertex 60.353 9.94516 11
      vertex 59 10.9282 11
    endloop
  endfacet
  facet normal -0 0 1
    outer loop
      vertex 57.0074 -2.22943 11
      vertex 63 -4 11
      vertex 57.4271 -1.76336 11
    endloop
  endfacet
  facet normal 0 0 1
    outer loop
      vertex 63 -4 11
      vertex 57.0074 -2.22943 11
      vertex 62.8252 -5.66329 11
    endloop
  endfacet
  facet normal 0 0 1
    outer loop
      vertex 63 4 11
      vertex 57.9344 0.623734 11
      vertex 58 0 11
    endloop
  endfacet
  facet normal 0 0 1
    outer loop
      vertex 63 4 11
      vertex 57.7406 1.22021 11
      vertex 57.9344 0.623734 11
    endloop
  endfacet
  facet normal 0 0 1
    outer loop
      vertex 55.3136 2.98357 11
      vertex 59 10.9282 11
      vertex 57.4721 11.6085 11
    endloop
  endfacet
  facet normal 0 0 1
    outer loop
      vertex 63 4 11
      vertex 57.4271 1.76336 11
      vertex 57.7406 1.22021 11
    endloop
  endfacet
  facet normal 0 0 1
    outer loop
      vertex 63 4 11
      vertex 57.0074 2.22943 11
      vertex 57.4271 1.76336 11
    endloop
  endfacet
  facet normal 0 0 1
    outer loop
      vertex 62.3084 7.25389 11
      vertex 56.5 2.59808 11
      vertex 57.0074 2.22943 11
    endloop
  endfacet
  facet normal 0 0 1
    outer loop
      vertex 61.4721 8.70228 11
      vertex 55.9271 2.85317 11
      vertex 56.5 2.59808 11
    endloop
  endfacet
  facet normal 0 0 1
    outer loop
      vertex 55.3136 2.98357 11
      vertex 57.4721 11.6085 11
      vertex 55.8362 11.9562 11
    endloop
  endfacet
  facet normal 0 0 1
    outer loop
      vertex 59 10.9282 11
      vertex 55.3136 2.98357 11
      vertex 55.9271 2.85317 11
    endloop
  endfacet
  facet normal 0 0 1
    outer loop
      vertex 55.8362 11.9562 11
      vertex 54.6864 2.98357 11
      vertex 55.3136 2.98357 11
    endloop
  endfacet
  facet normal 0 0 1
    outer loop
      vertex 55.8362 11.9562 11
      vertex 54.0729 2.85317 11
      vertex 54.6864 2.98357 11
    endloop
  endfacet
  facet normal 0 0 1
    outer loop
      vertex 55.8362 11.9562 11
      vertex 53.5 2.59808 11
      vertex 54.0729 2.85317 11
    endloop
  endfacet
  facet normal 0 0 1
    outer loop
      vertex 55.8362 11.9562 11
      vertex 52.9926 2.22943 11
      vertex 53.5 2.59808 11
    endloop
  endfacet
  facet normal 0 0 1
    outer loop
      vertex 55.8362 11.9562 11
      vertex 52.5729 1.76336 11
      vertex 52.9926 2.22943 11
    endloop
  endfacet
  facet normal 0 0 1
    outer loop
      vertex 55.8362 11.9562 11
      vertex 52.2594 1.22021 11
      vertex 52.5729 1.76336 11
    endloop
  endfacet
  facet normal 0 0 1
    outer loop
      vertex 52.0656 0.623734 11
      vertex 8 0 11
      vertex 52 0 11
    endloop
  endfacet
  facet normal 0 0 1
    outer loop
      vertex 7.82518 1.66329 11
      vertex 52.0656 0.623734 11
      vertex 52.2594 1.22021 11
    endloop
  endfacet
  facet normal -0 0 1
    outer loop
      vertex 7.30836 3.25389 11
      vertex 52.2594 1.22021 11
      vertex 55.8362 11.9562 11
    endloop
  endfacet
  facet normal 0 0 1
    outer loop
      vertex 52.0656 0.623734 11
      vertex 7.82518 1.66329 11
      vertex 8 0 11
    endloop
  endfacet
  facet normal 0 0 1
    outer loop
      vertex 52.2594 1.22021 11
      vertex 7.30836 3.25389 11
      vertex 7.82518 1.66329 11
    endloop
  endfacet
  facet normal 0 0 1
    outer loop
      vertex 55.8362 11.9562 11
      vertex 6.47214 4.70228 11
      vertex 7.30836 3.25389 11
    endloop
  endfacet
  facet normal 0 0 1
    outer loop
      vertex 55.8362 11.9562 11
      vertex 5.35304 5.94516 11
      vertex 6.47214 4.70228 11
    endloop
  endfacet
  facet normal 0 0 1
    outer loop
      vertex 55.8362 11.9562 11
      vertex 4 6.9282 11
      vertex 5.35304 5.94516 11
    endloop
  endfacet
  facet normal 0 0 1
    outer loop
      vertex 55.8362 11.9562 11
      vertex 2.47214 7.60845 11
      vertex 4 6.9282 11
    endloop
  endfacet
  facet normal -0 0 1
    outer loop
      vertex -5.83623 11.9562 11
      vertex 2.47214 7.60845 11
      vertex 55.8362 11.9562 11
    endloop
  endfacet
  facet normal 0 0 1
    outer loop
      vertex 2.47214 7.60845 11
      vertex -5.83623 11.9562 11
      vertex 0.836227 7.95617 11
    endloop
  endfacet
  facet normal 0 0 1
    outer loop
      vertex 0.836227 7.95617 11
      vertex -5.83623 11.9562 11
      vertex -0.836227 7.95617 11
    endloop
  endfacet
  facet normal 0 0 1
    outer loop
      vertex -5.83623 11.9562 11
      vertex -2.47214 7.60845 11
      vertex -0.836227 7.95617 11
    endloop
  endfacet
  facet normal 0 0 1
    outer loop
      vertex -5.83623 11.9562 11
      vertex -4 6.9282 11
      vertex -2.47214 7.60845 11
    endloop
  endfacet
  facet normal -0 0 1
    outer loop
      vertex -7.47214 11.6085 11
      vertex -4 6.9282 11
      vertex -5.83623 11.9562 11
    endloop
  endfacet
  facet normal 0 0 1
    outer loop
      vertex -4 6.9282 11
      vertex -7.47214 11.6085 11
      vertex -5.35304 5.94516 11
    endloop
  endfacet
  facet normal -0 0 1
    outer loop
      vertex -9 10.9282 11
      vertex -5.35304 5.94516 11
      vertex -7.47214 11.6085 11
    endloop
  endfacet
  facet normal -0 0 1
    outer loop
      vertex -10.353 9.94516 11
      vertex -5.35304 5.94516 11
      vertex -9 10.9282 11
    endloop
  endfacet
  facet normal 0 0 1
    outer loop
      vertex -5.35304 5.94516 11
      vertex -10.353 9.94516 11
      vertex -6.47214 4.70228 11
    endloop
  endfacet
  facet normal -0 0 1
    outer loop
      vertex -11.4721 8.70228 11
      vertex -6.47214 4.70228 11
      vertex -10.353 9.94516 11
    endloop
  endfacet
  facet normal -0 0 1
    outer loop
      vertex -12.3084 7.25389 11
      vertex -6.47214 4.70228 11
      vertex -11.4721 8.70228 11
    endloop
  endfacet
  facet normal 0 0 1
    outer loop
      vertex 62.8252 -5.66329 11
      vertex 57.0074 -2.22943 11
      vertex 62.3084 -7.25389 11
    endloop
  endfacet
  facet normal -0 0 1
    outer loop
      vertex 56.5 -2.59808 11
      vertex 62.3084 -7.25389 11
      vertex 57.0074 -2.22943 11
    endloop
  endfacet
  facet normal 0 0 1
    outer loop
      vertex 62.3084 -7.25389 11
      vertex 56.5 -2.59808 11
      vertex 61.4721 -8.70228 11
    endloop
  endfacet
  facet normal -0 0 1
    outer loop
      vertex 55.9271 -2.85317 11
      vertex 61.4721 -8.70228 11
      vertex 56.5 -2.59808 11
    endloop
  endfacet
  facet normal 0 0 1
    outer loop
      vertex 61.4721 -8.70228 11
      vertex 55.9271 -2.85317 11
      vertex 60.353 -9.94516 11
    endloop
  endfacet
  facet normal 0 0 1
    outer loop
      vertex 60.353 -9.94516 11
      vertex 55.9271 -2.85317 11
      vertex 59 -10.9282 11
    endloop
  endfacet
  facet normal -0 0 1
    outer loop
      vertex 55.3136 -2.98357 11
      vertex 59 -10.9282 11
      vertex 55.9271 -2.85317 11
    endloop
  endfacet
  facet normal 0 0 1
    outer loop
      vertex 59 -10.9282 11
      vertex 55.3136 -2.98357 11
      vertex 57.4721 -11.6085 11
    endloop
  endfacet
  facet normal 0 0 1
    outer loop
      vertex 57.4721 -11.6085 11
      vertex 55.3136 -2.98357 11
      vertex 55.8362 -11.9562 11
    endloop
  endfacet
  facet normal -0 0 1
    outer loop
      vertex 54.6864 -2.98357 11
      vertex 55.8362 -11.9562 11
      vertex 55.3136 -2.98357 11
    endloop
  endfacet
  facet normal 0 0 1
    outer loop
      vertex 54.0729 -2.85317 11
      vertex 55.8362 -11.9562 11
      vertex 54.6864 -2.98357 11
    endloop
  endfacet
  facet normal 0 0 1
    outer loop
      vertex 53.5 -2.59808 11
      vertex 55.8362 -11.9562 11
      vertex 54.0729 -2.85317 11
    endloop
  endfacet
  facet normal 0 0 1
    outer loop
      vertex 52.9926 -2.22943 11
      vertex 55.8362 -11.9562 11
      vertex 53.5 -2.59808 11
    endloop
  endfacet
  facet normal 0 0 1
    outer loop
      vertex 52.5729 -1.76336 11
      vertex 55.8362 -11.9562 11
      vertex 52.9926 -2.22943 11
    endloop
  endfacet
  facet normal 0 0 1
    outer loop
      vertex 52.2594 -1.22021 11
      vertex 55.8362 -11.9562 11
      vertex 52.5729 -1.76336 11
    endloop
  endfacet
  facet normal -0 0 1
    outer loop
      vertex 8 0 11
      vertex 52.0656 -0.623734 11
      vertex 52 0 11
    endloop
  endfacet
  facet normal 0 0 1
    outer loop
      vertex 7.82518 -1.66329 11
      vertex 52.0656 -0.623734 11
      vertex 8 0 11
    endloop
  endfacet
  facet normal 0 0 1
    outer loop
      vertex 52.0656 -0.623734 11
      vertex 7.82518 -1.66329 11
      vertex 52.2594 -1.22021 11
    endloop
  endfacet
  facet normal 0 0 1
    outer loop
      vertex 7.30836 -3.25389 11
      vertex 52.2594 -1.22021 11
      vertex 7.82518 -1.66329 11
    endloop
  endfacet
  facet normal 0 0 1
    outer loop
      vertex 52.2594 -1.22021 11
      vertex 7.30836 -3.25389 11
      vertex 55.8362 -11.9562 11
    endloop
  endfacet
  facet normal -0 0 1
    outer loop
      vertex 6.47214 -4.70228 11
      vertex 55.8362 -11.9562 11
      vertex 7.30836 -3.25389 11
    endloop
  endfacet
  facet normal -0 0 1
    outer loop
      vertex 5.35304 -5.94516 11
      vertex 55.8362 -11.9562 11
      vertex 6.47214 -4.70228 11
    endloop
  endfacet
  facet normal -0 0 1
    outer loop
      vertex 4 -6.9282 11
      vertex 55.8362 -11.9562 11
      vertex 5.35304 -5.94516 11
    endloop
  endfacet
  facet normal -0 0 1
    outer loop
      vertex 2.47214 -7.60845 11
      vertex 55.8362 -11.9562 11
      vertex 4 -6.9282 11
    endloop
  endfacet
  facet normal 0 0 1
    outer loop
      vertex -5.83623 -11.9562 11
      vertex 2.47214 -7.60845 11
      vertex 0.836227 -7.95617 11
    endloop
  endfacet
  facet normal 0 0 1
    outer loop
      vertex -5.83623 -11.9562 11
      vertex 0.836227 -7.95617 11
      vertex -0.836227 -7.95617 11
    endloop
  endfacet
  facet normal 0 0 1
    outer loop
      vertex 2.47214 -7.60845 11
      vertex -5.83623 -11.9562 11
      vertex 55.8362 -11.9562 11
    endloop
  endfacet
  facet normal 0 0 1
    outer loop
      vertex -2.47214 -7.60845 11
      vertex -5.83623 -11.9562 11
      vertex -0.836227 -7.95617 11
    endloop
  endfacet
  facet normal 0 0 1
    outer loop
      vertex -4 -6.9282 11
      vertex -5.83623 -11.9562 11
      vertex -2.47214 -7.60845 11
    endloop
  endfacet
  facet normal 0 0 1
    outer loop
      vertex -7.47214 -11.6085 11
      vertex -4 -6.9282 11
      vertex -5.35304 -5.94516 11
    endloop
  endfacet
  facet normal 0 0 1
    outer loop
      vertex -10.353 -9.94516 11
      vertex -5.35304 -5.94516 11
      vertex -6.47214 -4.70228 11
    endloop
  endfacet
  facet normal 0 0 1
    outer loop
      vertex -12.3084 -7.25389 11
      vertex -6.47214 -4.70228 11
      vertex -7.30836 -3.25389 11
    endloop
  endfacet
  facet normal 0 0 1
    outer loop
      vertex -4 -6.9282 11
      vertex -7.47214 -11.6085 11
      vertex -5.83623 -11.9562 11
    endloop
  endfacet
  facet normal 0 0 1
    outer loop
      vertex -13 -4 11
      vertex -7.30836 -3.25389 11
      vertex -7.82518 -1.66329 11
    endloop
  endfacet
  facet normal 0 0 1
    outer loop
      vertex -13 -4 11
      vertex -7.82518 -1.66329 11
      vertex -8 0 11
    endloop
  endfacet
  facet normal 0 0 1
    outer loop
      vertex -6.47214 4.70228 11
      vertex -12.3084 7.25389 11
      vertex -7.30836 3.25389 11
    endloop
  endfacet
  facet normal 0 0 1
    outer loop
      vertex -13 -4 11
      vertex -8 0 11
      vertex -13 4 11
    endloop
  endfacet
  facet normal -0 0 1
    outer loop
      vertex -12.8252 5.66329 11
      vertex -7.30836 3.25389 11
      vertex -12.3084 7.25389 11
    endloop
  endfacet
  facet normal 0 0 1
    outer loop
      vertex -7.30836 -3.25389 11
      vertex -13 -4 11
      vertex -12.8252 -5.66329 11
    endloop
  endfacet
  facet normal -0 0 1
    outer loop
      vertex -13 4 11
      vertex -7.30836 3.25389 11
      vertex -12.8252 5.66329 11
    endloop
  endfacet
  facet normal 0 0 1
    outer loop
      vertex -5.35304 -5.94516 11
      vertex -9 -10.9282 11
      vertex -7.47214 -11.6085 11
    endloop
  endfacet
  facet normal 0 0 1
    outer loop
      vertex -7.30836 3.25389 11
      vertex -13 4 11
      vertex -7.82518 1.66329 11
    endloop
  endfacet
  facet normal 0 0 1
    outer loop
      vertex -5.35304 -5.94516 11
      vertex -10.353 -9.94516 11
      vertex -9 -10.9282 11
    endloop
  endfacet
  facet normal 0 0 1
    outer loop
      vertex -7.82518 1.66329 11
      vertex -13 4 11
      vertex -8 0 11
    endloop
  endfacet
  facet normal 0 0 1
    outer loop
      vertex -6.47214 -4.70228 11
      vertex -11.4721 -8.70228 11
      vertex -10.353 -9.94516 11
    endloop
  endfacet
  facet normal 0 0 1
    outer loop
      vertex -6.47214 -4.70228 11
      vertex -12.3084 -7.25389 11
      vertex -11.4721 -8.70228 11
    endloop
  endfacet
  facet normal 0 0 1
    outer loop
      vertex -7.30836 -3.25389 11
      vertex -12.8252 -5.66329 11
      vertex -12.3084 -7.25389 11
    endloop
  endfacet
  facet normal 0.406737 0.913545 -0
    outer loop
      vertex 59 10.9282 0
      vertex 57.4721 11.6085 11
      vertex 59 10.9282 11
    endloop
  endfacet
  facet normal 0.406737 0.913545 0
    outer loop
      vertex 57.4721 11.6085 11
      vertex 59 10.9282 0
      vertex 57.4721 11.6085 0
    endloop
  endfacet
  facet normal 0.866026 0.5 0
    outer loop
      vertex 62.3084 7.25389 11
      vertex 61.4721 8.70228 0
      vertex 61.4721 8.70228 11
    endloop
  endfacet
  facet normal 0.866026 0.5 0
    outer loop
      vertex 61.4721 8.70228 0
      vertex 62.3084 7.25389 11
      vertex 62.3084 7.25389 0
    endloop
  endfacet
  facet normal 1 -0 0
    outer loop
      vertex 63 -4 11
      vertex 63 4 0
      vertex 63 4 11
    endloop
  endfacet
  facet normal 1 0 0
    outer loop
      vertex 63 4 0
      vertex 63 -4 11
      vertex 63 -4 0
    endloop
  endfacet
  facet normal -0.207912 0.978148 0
    outer loop
      vertex -5.83623 11.9562 0
      vertex -7.47214 11.6085 11
      vertex -5.83623 11.9562 11
    endloop
  endfacet
  facet normal -0.207912 0.978148 0
    outer loop
      vertex -7.47214 11.6085 11
      vertex -5.83623 11.9562 0
      vertex -7.47214 11.6085 0
    endloop
  endfacet
  facet normal -0.743145 -0.669131 0
    outer loop
      vertex -10.353 -9.94516 0
      vertex -11.4721 -8.70228 11
      vertex -11.4721 -8.70228 0
    endloop
  endfacet
  facet normal -0.743145 -0.669131 0
    outer loop
      vertex -11.4721 -8.70228 11
      vertex -10.353 -9.94516 0
      vertex -10.353 -9.94516 11
    endloop
  endfacet
  facet normal -0.866026 -0.5 0
    outer loop
      vertex -11.4721 -8.70228 0
      vertex -12.3084 -7.25389 11
      vertex -12.3084 -7.25389 0
    endloop
  endfacet
  facet normal -0.866026 -0.5 0
    outer loop
      vertex -12.3084 -7.25389 11
      vertex -11.4721 -8.70228 0
      vertex -11.4721 -8.70228 11
    endloop
  endfacet
  facet normal -0.951057 -0.309017 0
    outer loop
      vertex -12.3084 -7.25389 0
      vertex -12.8252 -5.66329 11
      vertex -12.8252 -5.66329 0
    endloop
  endfacet
  facet normal -0.951057 -0.309017 0
    outer loop
      vertex -12.8252 -5.66329 11
      vertex -12.3084 -7.25389 0
      vertex -12.3084 -7.25389 11
    endloop
  endfacet
  facet normal 0.587786 0.809017 -0
    outer loop
      vertex 60.353 9.94516 0
      vertex 59 10.9282 11
      vertex 60.353 9.94516 11
    endloop
  endfacet
  facet normal 0.587786 0.809017 0
    outer loop
      vertex 59 10.9282 11
      vertex 60.353 9.94516 0
      vertex 59 10.9282 0
    endloop
  endfacet
  facet normal 0.743144 0.669132 0
    outer loop
      vertex 61.4721 8.70228 11
      vertex 60.353 9.94516 0
      vertex 60.353 9.94516 11
    endloop
  endfacet
  facet normal 0.743144 0.669132 0
    outer loop
      vertex 60.353 9.94516 0
      vertex 61.4721 8.70228 11
      vertex 61.4721 8.70228 0
    endloop
  endfacet
  facet normal 0.587786 -0.809017 0
    outer loop
      vertex 59 -10.9282 0
      vertex 60.353 -9.94516 11
      vertex 59 -10.9282 11
    endloop
  endfacet
  facet normal 0.587786 -0.809017 0
    outer loop
      vertex 60.353 -9.94516 11
      vertex 59 -10.9282 0
      vertex 60.353 -9.94516 0
    endloop
  endfacet
  facet normal 0.866026 -0.5 0
    outer loop
      vertex 61.4721 -8.70228 11
      vertex 62.3084 -7.25389 0
      vertex 62.3084 -7.25389 11
    endloop
  endfacet
  facet normal 0.866026 -0.5 0
    outer loop
      vertex 62.3084 -7.25389 0
      vertex 61.4721 -8.70228 11
      vertex 61.4721 -8.70228 0
    endloop
  endfacet
  facet normal 0.743144 -0.669132 0
    outer loop
      vertex 60.353 -9.94516 11
      vertex 61.4721 -8.70228 0
      vertex 61.4721 -8.70228 11
    endloop
  endfacet
  facet normal 0.743144 -0.669132 0
    outer loop
      vertex 61.4721 -8.70228 0
      vertex 60.353 -9.94516 11
      vertex 60.353 -9.94516 0
    endloop
  endfacet
  facet normal 0.406737 -0.913545 0
    outer loop
      vertex 57.4721 -11.6085 0
      vertex 59 -10.9282 11
      vertex 57.4721 -11.6085 11
    endloop
  endfacet
  facet normal 0.406737 -0.913545 0
    outer loop
      vertex 59 -10.9282 11
      vertex 57.4721 -11.6085 0
      vertex 59 -10.9282 0
    endloop
  endfacet
  facet normal 0.994522 -0.104529 0
    outer loop
      vertex 62.8252 -5.66329 11
      vertex 63 -4 0
      vertex 63 -4 11
    endloop
  endfacet
  facet normal 0.994522 -0.104529 0
    outer loop
      vertex 63 -4 0
      vertex 62.8252 -5.66329 11
      vertex 62.8252 -5.66329 0
    endloop
  endfacet
  facet normal 0.994522 0.104529 0
    outer loop
      vertex 63 4 11
      vertex 62.8252 5.66329 0
      vertex 62.8252 5.66329 11
    endloop
  endfacet
  facet normal 0.994522 0.104529 0
    outer loop
      vertex 62.8252 5.66329 0
      vertex 63 4 11
      vertex 63 4 0
    endloop
  endfacet
  facet normal 0.951057 0.309016 0
    outer loop
      vertex 62.8252 5.66329 11
      vertex 62.3084 7.25389 0
      vertex 62.3084 7.25389 11
    endloop
  endfacet
  facet normal 0.951057 0.309016 0
    outer loop
      vertex 62.3084 7.25389 0
      vertex 62.8252 5.66329 11
      vertex 62.8252 5.66329 0
    endloop
  endfacet
  facet normal -0.406737 -0.913545 0
    outer loop
      vertex -9 -10.9282 0
      vertex -7.47214 -11.6085 11
      vertex -9 -10.9282 11
    endloop
  endfacet
  facet normal -0.406737 -0.913545 -0
    outer loop
      vertex -7.47214 -11.6085 11
      vertex -9 -10.9282 0
      vertex -7.47214 -11.6085 0
    endloop
  endfacet
  facet normal -0.587785 -0.809017 0
    outer loop
      vertex -10.353 -9.94516 0
      vertex -9 -10.9282 11
      vertex -10.353 -9.94516 11
    endloop
  endfacet
  facet normal -0.587785 -0.809017 -0
    outer loop
      vertex -9 -10.9282 11
      vertex -10.353 -9.94516 0
      vertex -9 -10.9282 0
    endloop
  endfacet
  facet normal -0.207912 -0.978148 0
    outer loop
      vertex -7.47214 -11.6085 0
      vertex -5.83623 -11.9562 11
      vertex -7.47214 -11.6085 11
    endloop
  endfacet
  facet normal -0.207912 -0.978148 -0
    outer loop
      vertex -5.83623 -11.9562 11
      vertex -7.47214 -11.6085 0
      vertex -5.83623 -11.9562 0
    endloop
  endfacet
  facet normal -0.994522 -0.104532 0
    outer loop
      vertex 58 0 0
      vertex 57.9344 0.623734 11
      vertex 57.9344 0.623734 0
    endloop
  endfacet
  facet normal -0.994522 -0.104532 0
    outer loop
      vertex 57.9344 0.623734 11
      vertex 58 0 0
      vertex 58 0 11
    endloop
  endfacet
  facet normal 0.207912 -0.978148 0
    outer loop
      vertex 54.0729 2.85317 0
      vertex 54.6864 2.98357 11
      vertex 54.0729 2.85317 11
    endloop
  endfacet
  facet normal 0.207912 -0.978148 0
    outer loop
      vertex 54.6864 2.98357 11
      vertex 54.0729 2.85317 0
      vertex 54.6864 2.98357 0
    endloop
  endfacet
  facet normal -0.20791 0.978148 0
    outer loop
      vertex 55.9271 -2.85317 0
      vertex 55.3136 -2.98357 11
      vertex 55.9271 -2.85317 11
    endloop
  endfacet
  facet normal -0.20791 0.978148 0
    outer loop
      vertex 55.3136 -2.98357 11
      vertex 55.9271 -2.85317 0
      vertex 55.3136 -2.98357 0
    endloop
  endfacet
  facet normal -0.406737 0.913545 0
    outer loop
      vertex 56.5 -2.59808 0
      vertex 55.9271 -2.85317 11
      vertex 56.5 -2.59808 11
    endloop
  endfacet
  facet normal -0.406737 0.913545 0
    outer loop
      vertex 55.9271 -2.85317 11
      vertex 56.5 -2.59808 0
      vertex 55.9271 -2.85317 0
    endloop
  endfacet
  facet normal -0.587785 -0.809017 0
    outer loop
      vertex 56.5 2.59808 0
      vertex 57.0074 2.22943 11
      vertex 56.5 2.59808 11
    endloop
  endfacet
  facet normal -0.587785 -0.809017 -0
    outer loop
      vertex 57.0074 2.22943 11
      vertex 56.5 2.59808 0
      vertex 57.0074 2.22943 0
    endloop
  endfacet
  facet normal 0.743145 -0.66913 0
    outer loop
      vertex 52.5729 1.76336 11
      vertex 52.9926 2.22943 0
      vertex 52.9926 2.22943 11
    endloop
  endfacet
  facet normal 0.743145 -0.66913 0
    outer loop
      vertex 52.9926 2.22943 0
      vertex 52.5729 1.76336 11
      vertex 52.5729 1.76336 0
    endloop
  endfacet
  facet normal 0.587785 -0.809017 0
    outer loop
      vertex 52.9926 2.22943 0
      vertex 53.5 2.59808 11
      vertex 52.9926 2.22943 11
    endloop
  endfacet
  facet normal 0.587785 -0.809017 0
    outer loop
      vertex 53.5 2.59808 11
      vertex 52.9926 2.22943 0
      vertex 53.5 2.59808 0
    endloop
  endfacet
  facet normal -0.866027 -0.499997 0
    outer loop
      vertex 57.7406 1.22021 0
      vertex 57.4271 1.76336 11
      vertex 57.4271 1.76336 0
    endloop
  endfacet
  facet normal -0.866027 -0.499997 0
    outer loop
      vertex 57.4271 1.76336 11
      vertex 57.7406 1.22021 0
      vertex 57.7406 1.22021 11
    endloop
  endfacet
  facet normal -0.951057 -0.309016 0
    outer loop
      vertex 57.9344 0.623734 0
      vertex 57.7406 1.22021 11
      vertex 57.7406 1.22021 0
    endloop
  endfacet
  facet normal -0.951057 -0.309016 0
    outer loop
      vertex 57.7406 1.22021 11
      vertex 57.9344 0.623734 0
      vertex 57.9344 0.623734 11
    endloop
  endfacet
  facet normal -0.743145 -0.66913 0
    outer loop
      vertex 57.4271 1.76336 0
      vertex 57.0074 2.22943 11
      vertex 57.0074 2.22943 0
    endloop
  endfacet
  facet normal -0.743145 -0.66913 0
    outer loop
      vertex 57.0074 2.22943 11
      vertex 57.4271 1.76336 0
      vertex 57.4271 1.76336 11
    endloop
  endfacet
  facet normal -0.20791 -0.978148 0
    outer loop
      vertex 55.3136 2.98357 0
      vertex 55.9271 2.85317 11
      vertex 55.3136 2.98357 11
    endloop
  endfacet
  facet normal -0.20791 -0.978148 -0
    outer loop
      vertex 55.9271 2.85317 11
      vertex 55.3136 2.98357 0
      vertex 55.9271 2.85317 0
    endloop
  endfacet
  facet normal 0 -1 0
    outer loop
      vertex 54.6864 2.98357 0
      vertex 55.3136 2.98357 11
      vertex 54.6864 2.98357 11
    endloop
  endfacet
  facet normal 0 -1 -0
    outer loop
      vertex 55.3136 2.98357 11
      vertex 54.6864 2.98357 0
      vertex 55.3136 2.98357 0
    endloop
  endfacet
  facet normal -0.406737 -0.913545 0
    outer loop
      vertex 55.9271 2.85317 0
      vertex 56.5 2.59808 11
      vertex 55.9271 2.85317 11
    endloop
  endfacet
  facet normal -0.406737 -0.913545 -0
    outer loop
      vertex 56.5 2.59808 11
      vertex 55.9271 2.85317 0
      vertex 56.5 2.59808 0
    endloop
  endfacet
  facet normal 0.951057 -0.309016 0
    outer loop
      vertex 52.0656 0.623734 11
      vertex 52.2594 1.22021 0
      vertex 52.2594 1.22021 11
    endloop
  endfacet
  facet normal 0.951057 -0.309016 0
    outer loop
      vertex 52.2594 1.22021 0
      vertex 52.0656 0.623734 11
      vertex 52.0656 0.623734 0
    endloop
  endfacet
  facet normal 0.866024 -0.500002 0
    outer loop
      vertex 52.2594 1.22021 11
      vertex 52.5729 1.76336 0
      vertex 52.5729 1.76336 11
    endloop
  endfacet
  facet normal 0.866024 -0.500002 0
    outer loop
      vertex 52.5729 1.76336 0
      vertex 52.2594 1.22021 11
      vertex 52.2594 1.22021 0
    endloop
  endfacet
  facet normal 0.994522 -0.104526 0
    outer loop
      vertex 52 0 11
      vertex 52.0656 0.623734 0
      vertex 52.0656 0.623734 11
    endloop
  endfacet
  facet normal 0.994522 -0.104526 0
    outer loop
      vertex 52.0656 0.623734 0
      vertex 52 0 11
      vertex 52 0 0
    endloop
  endfacet
  facet normal 0.406737 -0.913545 0
    outer loop
      vertex 53.5 2.59808 0
      vertex 54.0729 2.85317 11
      vertex 53.5 2.59808 11
    endloop
  endfacet
  facet normal 0.406737 -0.913545 0
    outer loop
      vertex 54.0729 2.85317 11
      vertex 53.5 2.59808 0
      vertex 54.0729 2.85317 0
    endloop
  endfacet
  facet normal -0.994522 0.104532 0
    outer loop
      vertex 57.9344 -0.623734 0
      vertex 58 0 11
      vertex 58 0 0
    endloop
  endfacet
  facet normal -0.994522 0.104532 0
    outer loop
      vertex 58 0 11
      vertex 57.9344 -0.623734 0
      vertex 57.9344 -0.623734 11
    endloop
  endfacet
  facet normal 0.994522 0.104526 0
    outer loop
      vertex 52.0656 -0.623734 11
      vertex 52 0 0
      vertex 52 0 11
    endloop
  endfacet
  facet normal 0.994522 0.104526 0
    outer loop
      vertex 52 0 0
      vertex 52.0656 -0.623734 11
      vertex 52.0656 -0.623734 0
    endloop
  endfacet
  facet normal -0.866027 0.499997 0
    outer loop
      vertex 57.4271 -1.76336 0
      vertex 57.7406 -1.22021 11
      vertex 57.7406 -1.22021 0
    endloop
  endfacet
  facet normal -0.866027 0.499997 0
    outer loop
      vertex 57.7406 -1.22021 11
      vertex 57.4271 -1.76336 0
      vertex 57.4271 -1.76336 11
    endloop
  endfacet
  facet normal 0.406737 0.913545 -0
    outer loop
      vertex 54.0729 -2.85317 0
      vertex 53.5 -2.59808 11
      vertex 54.0729 -2.85317 11
    endloop
  endfacet
  facet normal 0.406737 0.913545 0
    outer loop
      vertex 53.5 -2.59808 11
      vertex 54.0729 -2.85317 0
      vertex 53.5 -2.59808 0
    endloop
  endfacet
  facet normal 0.743145 0.66913 0
    outer loop
      vertex 52.9926 -2.22943 11
      vertex 52.5729 -1.76336 0
      vertex 52.5729 -1.76336 11
    endloop
  endfacet
  facet normal 0.743145 0.66913 0
    outer loop
      vertex 52.5729 -1.76336 0
      vertex 52.9926 -2.22943 11
      vertex 52.9926 -2.22943 0
    endloop
  endfacet
  facet normal 0.587785 0.809017 -0
    outer loop
      vertex 53.5 -2.59808 0
      vertex 52.9926 -2.22943 11
      vertex 53.5 -2.59808 11
    endloop
  endfacet
  facet normal 0.587785 0.809017 0
    outer loop
      vertex 52.9926 -2.22943 11
      vertex 53.5 -2.59808 0
      vertex 52.9926 -2.22943 0
    endloop
  endfacet
  facet normal 0.951057 0.309016 0
    outer loop
      vertex 52.2594 -1.22021 11
      vertex 52.0656 -0.623734 0
      vertex 52.0656 -0.623734 11
    endloop
  endfacet
  facet normal 0.951057 0.309016 0
    outer loop
      vertex 52.0656 -0.623734 0
      vertex 52.2594 -1.22021 11
      vertex 52.2594 -1.22021 0
    endloop
  endfacet
  facet normal -0.587785 0.809017 0
    outer loop
      vertex 57.0074 -2.22943 0
      vertex 56.5 -2.59808 11
      vertex 57.0074 -2.22943 11
    endloop
  endfacet
  facet normal -0.587785 0.809017 0
    outer loop
      vertex 56.5 -2.59808 11
      vertex 57.0074 -2.22943 0
      vertex 56.5 -2.59808 0
    endloop
  endfacet
  facet normal -0.951057 0.309016 0
    outer loop
      vertex 57.7406 -1.22021 0
      vertex 57.9344 -0.623734 11
      vertex 57.9344 -0.623734 0
    endloop
  endfacet
  facet normal -0.951057 0.309016 0
    outer loop
      vertex 57.9344 -0.623734 11
      vertex 57.7406 -1.22021 0
      vertex 57.7406 -1.22021 11
    endloop
  endfacet
  facet normal 0.866024 0.500002 0
    outer loop
      vertex 52.5729 -1.76336 11
      vertex 52.2594 -1.22021 0
      vertex 52.2594 -1.22021 11
    endloop
  endfacet
  facet normal 0.866024 0.500002 0
    outer loop
      vertex 52.2594 -1.22021 0
      vertex 52.5729 -1.76336 11
      vertex 52.5729 -1.76336 0
    endloop
  endfacet
  facet normal -0.743145 0.66913 0
    outer loop
      vertex 57.0074 -2.22943 0
      vertex 57.4271 -1.76336 11
      vertex 57.4271 -1.76336 0
    endloop
  endfacet
  facet normal -0.743145 0.66913 0
    outer loop
      vertex 57.4271 -1.76336 11
      vertex 57.0074 -2.22943 0
      vertex 57.0074 -2.22943 11
    endloop
  endfacet
  facet normal 0.207912 0.978148 -0
    outer loop
      vertex 54.6864 -2.98357 0
      vertex 54.0729 -2.85317 11
      vertex 54.6864 -2.98357 11
    endloop
  endfacet
  facet normal 0.207912 0.978148 0
    outer loop
      vertex 54.0729 -2.85317 11
      vertex 54.6864 -2.98357 0
      vertex 54.0729 -2.85317 0
    endloop
  endfacet
  facet normal 0 1 -0
    outer loop
      vertex 55.3136 -2.98357 0
      vertex 54.6864 -2.98357 11
      vertex 55.3136 -2.98357 11
    endloop
  endfacet
  facet normal 0 1 0
    outer loop
      vertex 54.6864 -2.98357 11
      vertex 55.3136 -2.98357 0
      vertex 54.6864 -2.98357 0
    endloop
  endfacet
endsolid OpenSCAD_Model
